<?xml version="1.0" encoding="utf-8"?>
<!-- Generator: Adobe Illustrator 24.1.3, SVG Export Plug-In . SVG Version: 6.00 Build 0)  -->
<svg version="1.1" id="Warstwa_1" xmlns="http://www.w3.org/2000/svg" xmlns:xlink="http://www.w3.org/1999/xlink" x="0px" y="0px"
	 viewBox="0 0 441.2 47.4" style="enable-background:new 0 0 441.2 47.4;" xml:space="preserve">
<style type="text/css">
	.st0{fill:#28292B;}
	.st1{fill:#379CF5;}
</style>
<g>
	<path class="st0" d="M0,12.7c0.7-0.4,1.6-0.7,2.7-1.1c1.1-0.4,2.4-0.7,3.7-1c1.3-0.3,2.7-0.5,4-0.7c1.4-0.2,2.6-0.3,3.8-0.3
		c2.5,0,4.6,0.3,6.3,0.9c1.7,0.6,3.1,1.7,4,3.1c0.9,1.4,1.4,3.3,1.4,5.8v18.4h-8.1V21c0-0.7-0.1-1.3-0.3-1.9
		c-0.2-0.6-0.5-1.1-0.9-1.5s-0.9-0.7-1.6-1c-0.7-0.2-1.5-0.4-2.5-0.4c-0.8,0-1.7,0.1-2.5,0.3s-1.5,0.4-1.9,0.6v20.7H0V12.7z"/>
	<path class="st0" d="M43.7,38.6c-1.7,0-3.2-0.2-4.7-0.5s-2.7-0.8-3.9-1.5c-1.1-0.7-2-1.7-2.6-2.9s-0.9-2.7-0.9-4.5
		c0-1.7,0.4-3.2,1.1-4.5s1.8-2.2,3.2-2.9c1.4-0.7,3.3-1,5.5-1c1.2,0,2.4,0.1,3.6,0.4c1.2,0.3,2.2,0.6,3.1,1c0.9,0.4,1.7,0.9,2.2,1.4
		l0.3,3.9c-0.7-0.4-1.6-0.8-2.6-1c-1-0.3-2.1-0.4-3.3-0.4c-1.8,0-3.1,0.3-3.9,0.8s-1.2,1.3-1.2,2.5c0,0.7,0.2,1.3,0.6,1.8
		s0.9,1,1.6,1.2c0.7,0.3,1.4,0.4,2.1,0.4c1.8,0,3.1-0.1,3.9-0.4c0.7-0.3,1.1-0.8,1.1-1.5V20.8c0-1.7-0.5-2.9-1.6-3.6
		c-1.1-0.7-2.6-1.1-4.5-1.1c-1.6,0-3.2,0.3-4.8,0.8c-1.6,0.6-2.9,1.2-3.9,2v-7.2c0.9-0.6,2.4-1.1,4.4-1.6s4.2-0.8,6.6-0.8
		c0.9,0,1.8,0.1,2.9,0.2c1,0.1,2.1,0.4,3.1,0.8c1,0.4,2,0.9,2.9,1.7c0.9,0.7,1.6,1.6,2.1,2.8c0.5,1.1,0.8,2.5,0.8,4.2l-0.1,13
		c0,1.6-0.5,2.8-1.6,3.8c-1,1-2.6,1.7-4.5,2.1C48.8,38.4,46.5,38.6,43.7,38.6z"/>
	<path class="st0" d="M72.3,38.6c-2,0-3.6-0.2-5-0.6c-1.4-0.4-2.7-0.9-3.9-1.4v-7.1c0.8,0.5,1.6,1,2.6,1.5s2,0.9,3.1,1.3
		c1.1,0.3,2.3,0.5,3.6,0.5s2.2-0.2,2.7-0.7s0.8-1,0.8-1.7c0-0.6-0.3-1.1-0.8-1.5s-1.2-0.7-2.1-0.9c-0.9-0.3-1.8-0.5-2.8-0.7
		c-0.9-0.2-1.7-0.5-2.6-0.8c-0.9-0.4-1.6-0.9-2.3-1.5c-0.7-0.7-1.2-1.5-1.7-2.4c-0.4-1-0.6-2.1-0.6-3.5c0-1.8,0.3-3.2,1-4.4
		s1.6-2.1,2.7-2.8c1.1-0.7,2.3-1.2,3.6-1.5s2.6-0.4,3.8-0.4c2.2,0.1,4,0.3,5.3,0.7s2.5,1,3.6,1.6v6.3c-1.2-0.7-2.5-1.3-3.7-1.9
		c-1.2-0.6-2.6-0.9-4.2-0.9c-1.4,0-2.4,0.2-3,0.7c-0.6,0.4-0.9,1-0.9,1.7s0.2,1.2,0.6,1.6c0.4,0.4,1,0.7,1.7,0.9s1.4,0.5,2.3,0.7
		c0.9,0.2,1.8,0.5,2.8,0.8s1.9,0.7,2.7,1.3s1.5,1.3,2.1,2.3c0.5,1,0.8,2.3,0.8,3.9c0,2.2-0.6,4-1.8,5.3s-2.7,2.3-4.5,2.8
		C76.4,38.4,74.4,38.6,72.3,38.6z"/>
	<path class="st0" d="M89.2,37.8v-6.4l14.7-16.7l0.8,1.7H89.5v-6.1H111v6.3L97.3,33.4L97,31.3h13.9v6.5H89.2z"/>
	<path class="st0" d="M129.4,38.6c-2.7,0-5.2-0.6-7.3-1.7c-2.1-1.1-3.8-2.8-4.9-4.9c-1.2-2.1-1.8-4.6-1.8-7.6
		c0-4.8,1.2-8.5,3.6-11.1c2.4-2.6,5.8-3.9,10.2-3.9c3,0,5.5,0.7,7.4,2s3.2,3.2,4.1,5.7s1.3,5.5,1.2,9.1H121l-0.9-5.2h15.1l-1.2,2.6
		c0-2.9-0.5-5-1.2-6.2c-0.8-1.2-2.1-1.8-3.9-1.8c-1,0-1.9,0.3-2.7,0.8s-1.4,1.3-1.9,2.5s-0.7,2.8-0.7,4.9c0,2.6,0.6,4.6,1.9,6
		c1.2,1.4,3.2,2.1,6,2.1c1,0,2-0.1,3-0.4c1-0.2,1.9-0.5,2.8-0.8c0.9-0.3,1.6-0.6,2.2-0.9v6.9c-1.3,0.5-2.8,1-4.4,1.3
		C133.4,38.5,131.6,38.6,129.4,38.6z"/>
	<path class="st1" d="M173,19.4v18.4h-8.1V21c0-0.7-0.1-1.3-0.3-1.9c-0.2-0.6-0.5-1.1-0.9-1.5s-0.9-0.7-1.6-1
		c-0.7-0.2-1.5-0.4-2.5-0.4c-0.8,0-1.6,0.1-2.3,0.3s-1.3,0.4-1.7,0.6v20.7h-8.1V12.7c0.7-0.4,1.6-0.7,2.7-1.1c1.1-0.4,2.4-0.7,3.7-1
		s2.7-0.5,4-0.7c1.4-0.2,2.6-0.3,3.8-0.3c2.5,0,4.5,0.3,6.2,0.9c1.7,0.6,2.9,1.7,3.8,3.1S173,17,173,19.4z M164.7,14.5
		c1.1-1,2.5-1.8,4.1-2.6c1.6-0.7,3.3-1.3,5-1.7c1.8-0.4,3.4-0.6,4.9-0.6c2.5,0,4.5,0.3,6.2,0.9c1.7,0.6,2.9,1.7,3.8,3.1
		c0.8,1.4,1.3,3.3,1.3,5.8v18.4h-8.1V21c0-0.7-0.1-1.3-0.3-1.9c-0.2-0.6-0.5-1.1-0.9-1.5s-0.9-0.7-1.6-1c-0.7-0.2-1.5-0.4-2.5-0.4
		c-0.8,0-1.6,0.1-2.3,0.4c-0.7,0.2-1.3,0.5-1.7,0.9L164.7,14.5z"/>
	<path class="st1" d="M207.8,38.6c-1.7,0-3.2-0.2-4.7-0.5s-2.7-0.8-3.9-1.5c-1.1-0.7-2-1.7-2.6-2.9s-0.9-2.7-0.9-4.5
		c0-1.7,0.4-3.2,1.1-4.5s1.8-2.2,3.2-2.9c1.4-0.7,3.3-1,5.5-1c1.2,0,2.4,0.1,3.6,0.4c1.2,0.3,2.2,0.6,3.1,1s1.7,0.9,2.2,1.4l0.3,3.9
		c-0.7-0.4-1.6-0.8-2.6-1c-1-0.3-2.1-0.4-3.3-0.4c-1.8,0-3.1,0.3-3.9,0.8s-1.2,1.3-1.2,2.5c0,0.7,0.2,1.3,0.6,1.8s0.9,1,1.6,1.2
		c0.7,0.3,1.4,0.4,2.1,0.4c1.8,0,3.1-0.1,3.9-0.4c0.7-0.3,1.1-0.8,1.1-1.5V20.8c0-1.7-0.5-2.9-1.6-3.6c-1.1-0.7-2.6-1.1-4.5-1.1
		c-1.6,0-3.2,0.3-4.8,0.8c-1.6,0.6-2.9,1.2-3.9,2v-7.2c0.9-0.6,2.4-1.1,4.4-1.6s4.2-0.8,6.6-0.8c0.9,0,1.8,0.1,2.9,0.2
		c1,0.1,2.1,0.4,3.1,0.8c1,0.4,2,0.9,2.9,1.7c0.9,0.7,1.6,1.6,2.1,2.8c0.5,1.1,0.8,2.5,0.8,4.2l-0.1,13c0,1.6-0.5,2.8-1.6,3.8
		c-1,1-2.6,1.7-4.5,2.1C213,38.4,210.6,38.6,207.8,38.6z"/>
	<path class="st1" d="M236.4,38.6c-2,0-3.6-0.2-5-0.6c-1.4-0.4-2.7-0.9-3.9-1.4v-7.1c0.8,0.5,1.6,1,2.6,1.5c0.9,0.5,2,0.9,3.1,1.3
		c1.1,0.3,2.3,0.5,3.6,0.5c1.3,0,2.2-0.2,2.7-0.7s0.8-1,0.8-1.7c0-0.6-0.3-1.1-0.8-1.5s-1.2-0.7-2.1-0.9c-0.9-0.3-1.8-0.5-2.8-0.7
		c-0.9-0.2-1.7-0.5-2.6-0.8c-0.9-0.4-1.6-0.9-2.3-1.5c-0.7-0.7-1.2-1.5-1.7-2.4c-0.4-1-0.6-2.1-0.6-3.5c0-1.8,0.3-3.2,1-4.4
		s1.6-2.1,2.7-2.8s2.3-1.2,3.6-1.5c1.3-0.3,2.6-0.4,3.8-0.4c2.2,0.1,4,0.3,5.3,0.7s2.5,1,3.6,1.6v6.3c-1.2-0.7-2.5-1.3-3.7-1.9
		c-1.2-0.6-2.6-0.9-4.2-0.9c-1.4,0-2.4,0.2-3,0.7c-0.6,0.4-0.9,1-0.9,1.7s0.2,1.2,0.6,1.6c0.4,0.4,1,0.7,1.7,0.9s1.4,0.5,2.3,0.7
		s1.8,0.5,2.8,0.8s1.9,0.7,2.7,1.3c0.8,0.6,1.5,1.3,2.1,2.3c0.5,1,0.8,2.3,0.8,3.9c0,2.2-0.6,4-1.8,5.3c-1.2,1.3-2.7,2.3-4.5,2.8
		C240.5,38.4,238.5,38.6,236.4,38.6z"/>
	<path class="st1" d="M266.9,38.6c-2.7,0-5.2-0.6-7.3-1.7s-3.8-2.8-4.9-4.9c-1.2-2.1-1.8-4.6-1.8-7.6c0-4.8,1.2-8.5,3.6-11.1
		c2.4-2.6,5.8-3.9,10.2-3.9c3,0,5.5,0.7,7.4,2c1.9,1.3,3.2,3.2,4.1,5.7c0.9,2.5,1.3,5.5,1.2,9.1h-20.9l-0.9-5.2h15.1l-1.2,2.6
		c0-2.9-0.5-5-1.2-6.2c-0.8-1.2-2.1-1.8-3.9-1.8c-1,0-1.9,0.3-2.7,0.8s-1.4,1.3-1.9,2.5s-0.7,2.8-0.7,4.9c0,2.6,0.6,4.6,1.9,6
		c1.2,1.4,3.2,2.1,6,2.1c1,0,2-0.1,3-0.4c1-0.2,1.9-0.5,2.8-0.8c0.9-0.3,1.6-0.6,2.2-0.9v6.9c-1.3,0.5-2.8,1-4.4,1.3
		C270.9,38.5,269,38.6,266.9,38.6z"/>
	<path class="st1" d="M297.8,38.5c-2,0-3.8-0.3-5.5-0.9c-1.7-0.6-3.3-1.4-4.6-2.6c-1.3-1.2-2.4-2.6-3.1-4.4
		c-0.8-1.8-1.1-3.8-1.1-6.2c0-2.5,0.4-4.7,1.1-6.5c0.7-1.9,1.7-3.4,3-4.6c1.3-1.2,2.8-2.2,4.5-2.8s3.7-0.9,5.8-0.9
		c1.5,0,3,0.2,4.6,0.5c1.6,0.3,3,0.7,4.2,1.3v6.9c-1.3-0.6-2.5-1.1-3.7-1.4c-1.2-0.4-2.5-0.6-3.7-0.6c-2.3,0-4.1,0.6-5.5,1.7
		c-1.4,1.1-2.1,3-2.1,5.6c0,2.7,0.6,4.8,1.8,6.1c1.2,1.4,3.3,2.1,6.1,2.1c1.3,0,2.6-0.2,3.9-0.7c1.2-0.5,2.3-1,3.2-1.5v6.9
		c-1.3,0.7-2.6,1.2-4,1.5C301.2,38.4,299.6,38.5,297.8,38.5z"/>
	<path class="st1" d="M311,37.8v-6.4l14.7-16.6l0.8,1.7h-15.2v-6.1h21.5v6.3l-13.7,16.8l-0.3-2.1h13.9v6.5L311,37.8L311,37.8z"/>
	<path class="st1" d="M346.9,37.8h-8V0h8.1L346.9,37.8z M345.2,22.7l10.1-12.3h9.8l-15.3,16.1L345.2,22.7z M351.3,19.2l14.5,18.7
		h-10.3l-10-13.2L351.3,19.2z"/>
	<path class="st1" d="M370.8,6.6V0.4h8.4v6.2H370.8z M371,37.8V10.7h8.1l0.1,27.1H371z"/>
	<path class="st0" d="M385.9,37.8v-7.7h7.9v7.7H385.9z"/>
	<path class="st0" d="M415.4,38.6c-0.5,0-1.3-0.1-2.4-0.2c-1.1-0.1-2.1-0.4-3.3-0.7c-1.1-0.4-2.1-1-2.9-1.8l1.6-2.6v14.2h-7.9V16
		c0-1.2,0.3-2.2,1-3s1.6-1.5,2.8-2.1c1.2-0.5,2.6-0.9,4.2-1.2c1.6-0.3,3.3-0.4,5.1-0.4c2.7,0,5.2,0.5,7.2,1.4
		c2.1,0.9,3.7,2.5,4.9,4.6c1.2,2.2,1.8,5.1,1.8,8.9c0,2.8-0.5,5.3-1.5,7.5s-2.4,3.8-4.2,5C420,37.9,418,38.6,415.4,38.6z M413,32.1
		c1.4,0,2.6-0.3,3.6-0.8c0.9-0.5,1.7-1.3,2.1-2.5c0.5-1.2,0.7-2.8,0.7-4.7c0-1.7-0.2-3.1-0.5-4.2c-0.4-1.2-1-2.1-1.9-2.7
		c-0.9-0.6-2.1-0.9-3.7-0.9c-1.7,0-3,0.2-3.7,0.5s-1.1,0.8-1.1,1.3V31c0.7,0.4,1.4,0.7,2.3,0.9C411.7,32.1,412.4,32.1,413,32.1z"/>
	<path class="st0" d="M441.2,37.8h-8V0h8V37.8z"/>
</g>
</svg>
